<svg width="1000" height="876" viewBox="0 0 1000 876" fill="none" xmlns="http://www.w3.org/2000/svg">
<path d="M93.75 688C76.5625 688 62.5 702.062 62.5 719.25C62.5 805.578 132.422 875.5 218.75 875.5H781.25C867.578 875.5 937.5 805.578 937.5 719.25C937.5 702.062 923.438 688 906.25 688H93.75ZM62.5 332.531C62.5 356.359 81.8359 375.5 105.469 375.5H894.531C918.359 375.5 937.5 356.164 937.5 332.531C937.5 298.937 932.422 265.344 916.406 235.852C873.047 156.164 755.664 0.5 500 0.5C244.336 0.5 126.953 155.969 83.5937 235.852C67.5781 265.344 62.5 298.937 62.5 332.531ZM0 531.75C0 566.32 27.9297 594.25 62.5 594.25H937.5C972.07 594.25 1000 566.32 1000 531.75C1000 497.18 972.07 469.25 937.5 469.25H62.5C27.9297 469.25 0 497.18 0 531.75ZM500 78.625C512.432 78.625 524.355 83.5636 533.146 92.3544C541.936 101.145 546.875 113.068 546.875 125.5C546.875 137.932 541.936 149.855 533.146 158.646C524.355 167.436 512.432 172.375 500 172.375C487.568 172.375 475.645 167.436 466.854 158.646C458.064 149.855 453.125 137.932 453.125 125.5C453.125 113.068 458.064 101.145 466.854 92.3544C475.645 83.5636 487.568 78.625 500 78.625ZM234.375 188C234.375 175.568 239.314 163.645 248.104 154.854C256.895 146.064 268.818 141.125 281.25 141.125C293.682 141.125 305.605 146.064 314.396 154.854C323.186 163.645 328.125 175.568 328.125 188C328.125 200.432 323.186 212.355 314.396 221.146C305.605 229.936 293.682 234.875 281.25 234.875C268.818 234.875 256.895 229.936 248.104 221.146C239.314 212.355 234.375 200.432 234.375 188ZM718.75 141.125C731.182 141.125 743.105 146.064 751.896 154.854C760.686 163.645 765.625 175.568 765.625 188C765.625 200.432 760.686 212.355 751.896 221.146C743.105 229.936 731.182 234.875 718.75 234.875C706.318 234.875 694.395 229.936 685.604 221.146C676.814 212.355 671.875 200.432 671.875 188C671.875 175.568 676.814 163.645 685.604 154.854C694.395 146.064 706.318 141.125 718.75 141.125Z" fill="black"/>
</svg>
