<svg width="403" height="403" viewBox="0 0 403 403" fill="none" xmlns="http://www.w3.org/2000/svg">
<path d="M201.5 402.75C312.65 402.75 402.75 312.65 402.75 201.5C402.75 192.182 388.783 190.633 383.973 198.622C373.715 215.614 359.723 230.049 343.06 240.834C326.396 251.618 307.496 258.469 287.793 260.867C268.089 263.265 248.098 261.148 229.334 254.676C210.57 248.204 193.524 237.546 179.489 223.511C165.454 209.476 154.796 192.43 148.324 173.666C141.852 154.902 139.735 134.911 142.133 115.207C144.531 95.5038 151.382 76.6043 162.166 59.9405C172.951 43.2766 187.386 29.2854 204.378 19.0266C212.367 14.1966 210.818 0.25 201.5 0.25C90.3496 0.25 0.25 90.3496 0.25 201.5C0.25 312.65 90.3496 402.75 201.5 402.75Z" fill="#3AA9FF"/>
</svg>
